inDegrees=yes
name=IK-live
DataType=double
version=3
OpenSimVersion=4.1
endheader
time	pelvis_tilt	pelvis_list	pelvis_rotation	pelvis_tx	pelvis_ty	pelvis_tz	hip_flexion_r	hip_adduction_r	hip_rotation_r	knee_angle_r	ankle_angle_r	subtalar_angle_r	mtp_angle_r	hip_flexion_l	hip_adduction_l	hip_rotation_l	knee_angle_l	ankle_angle_l	subtalar_angle_l	mtp_angle_l	lumbar_extension	lumbar_bending	lumbar_rotation	neck_flex	neck_latbend	neck_rot	arm_flex_r	arm_add_r	arm_rot_r	elbow_flex_r	pro_sup_r	wrist_flex_r	wrist_dev_r	arm_flex_l	arm_add_l	arm_rot_l	elbow_flex_l	pro_sup_l	wrist_flex_l	wrist_dev_l
60.4490564	-4140.639717414925	-3213.748135333433	-1511.850702701585	0.2341366603171506	0.04326292228651554	-1.326684523481465	-22.57117169827992	-1.591976316804377	-3.241458145969817	5.899560354604904	2.451982624139334	1.987972377786656	0	-24.74788768789517	-3.395140484746916	-11.58000132048591	9.793848132074926	-0.4439473045988533	4.250290820099795	0	-21.37711699760957	1.659277491615732	3.206407148933037	0	0	0	4.963730911345059	-15.15848205048041	28.24659809642489	31.56560147404191	34.40914558642658	0	3.605984802405144	9.692952450218812	-13.41056841500336	36.61322685633608	31.53631098666259	38.64166581470216	0	3.605984802405144
60.6159881	-4136.5785684699	-3214.276760342052	-1513.964637985415	0.2341366603171506	0.04326292228651554	-1.326684523481465	-22.57117169827992	-1.591976316804377	-3.241458145969817	5.899560354604904	2.451982624139334	1.987972377786656	0	-24.74788768789517	-3.395140484746916	-11.58000132048591	9.793848132074926	-0.4439473045988533	4.250290820099795	0	-21.37711699760957	1.659277491615732	3.206407148933037	0	0	0	4.964512237535753	-15.15847881193118	28.24574736558125	31.56804475118231	34.41029384128492	0	3.606297537925876	9.693670034213497	-13.41060090140514	36.61204419200211	31.53875742902478	38.64233238068329	0	3.606297537925876
60.7829576	-4111.768509267178	-3198.648351710259	-1536.572363799553	0.2341366603171506	0.04326292228651554	-1.326684523481465	-22.57117169827992	-1.591976316804377	-3.241458145969817	5.899560354604904	2.451982624139334	1.987972377786656	0	-24.74788768789517	-3.395140484746916	-11.58000132048591	9.793848132074926	-0.4439473045988533	4.250290820099795	0	-21.37711699760957	1.659277491615732	3.206407148933037	0	0	0	4.966670117490858	-15.1584697207069	28.24332296831344	31.57520376580269	34.41368738579344	0	3.607238004099418	9.695648528282643	-13.41069209811972	36.60865863179799	31.54592598454191	38.6442985352105	0	3.607238004099418
60.946807	-4107.505719573812	-3195.508151041417	-1541.000194825605	0.2341366603171506	0.04326292228651554	-1.326684523481465	-22.57117169827992	-1.591976316804377	-3.241458145969817	5.899560354604904	2.451982624139334	1.987972377786656	0	-24.74788768789517	-3.395140484746916	-11.58000132048591	9.793848132074926	-0.4439473045988533	4.250290820099795	0	-21.37711699760957	1.659277491615732	3.206407148933037	0	0	0	4.968258070045156	-15.15846306599844	28.24155708257162	31.58036945411548	34.41612883662898	0	3.607910254185641	9.697105275174737	-13.41075885314803	36.6061963411576	31.55109848967817	38.64571405285144	0	3.607910254185641
61.0971971	-4108.938503155886	-3193.183866584878	-1539.227352407697	0.2341366603171506	0.04326292228651554	-1.326684523481465	-22.57117169827992	-1.591976316804377	-3.241458145969817	5.899560354604904	2.451982624139334	1.987972377786656	0	-24.74788768789517	-3.395140484746916	-11.58000132048591	9.793848132074926	-0.4439473045988533	4.250290820099795	0	-21.37711699760957	1.659277491615732	3.206407148933037	0	0	0	4.969895452597958	-15.15845617681672	28.23972232597528	31.58577206434862	34.41868751707181	0	3.608617623997991	9.69860674827118	-13.41082796045555	36.60363526101298	31.55650827620051	38.6471968758832	0	3.608617623997991
61.2651014	-4110.057236642295	-3195.081081293121	-1537.582304039655	0.2341366603171506	0.04326292228651554	-1.326684523481465	-22.57117169827992	-1.591976316804377	-3.241458145969817	5.899560354604904	2.451982624139334	1.987972377786656	0	-24.74788768789517	-3.395140484746916	-11.58000132048591	9.793848132074926	-0.4439473045988533	4.250290820099795	0	-21.37711699760957	1.659277491615732	3.206407148933037	0	0	0	4.971402536457261	-15.15844983984045	28.23803554153286	31.59073480812705	34.42103757039479	0	3.609267192205861	9.699988833741267	-13.4108915284044	36.60128108996838	31.56147760711833	38.64855885326158	0	3.609267192205861
61.4320486	-4117.96708315868	-3191.394541870518	-1539.738446229134	0.2341366603171506	0.04326292228651554	-1.326684523481465	-22.57117169827992	-1.591976316804377	-3.241458145969817	5.899560354604904	2.451982624139334	1.987972377786656	0	-24.74788768789517	-3.395140484746916	-11.58000132048591	9.793848132074926	-0.4439473045988533	4.250290820099795	0	-21.37711699760957	1.659277491615732	3.206407148933037	0	0	0	4.973918478506372	-15.15843917601435	28.2351760733161	31.59926376692062	34.42509427234345	0	3.610398871463758	9.702294192980727	-13.41099850085852	36.597281457708	31.57001804503475	38.65090761340318	0	3.610398871463758
61.5989013	-4146.211455301505	-3178.343118521321	-1534.858033175283	0.2341366603171506	0.04326292228651554	-1.326684523481465	-22.57117169827992	-1.591976316804377	-3.241458145969817	5.899560354604904	2.451982624139334	1.987972377786656	0	-24.74788768789517	-3.395140484746916	-11.58000132048591	9.793848132074926	-0.4439473045988533	4.250290820099795	0	-21.37711699760957	1.659277491615732	3.206407148933037	0	0	0	4.98317246769113	-15.15839988626258	28.2246278941192	31.63075206990294	34.4400702693278	0	3.614569000585383	9.710772031371619	-13.41139263014695	36.58252335915925	31.60154870329369	38.65957941914825	0	3.614569000585383
61.7658427	-4178.796413528546	-3171.956479288618	-1517.858200665918	0.2341366603171506	0.04326292228651554	-1.326684523481465	-22.57117169827992	-1.591976316804377	-3.241458145969817	5.899560354604904	2.451982624139334	1.987972377786656	0	-24.74788768789517	-3.395140484746916	-11.58000132048591	9.793848132074926	-0.4439473045988533	4.250290820099795	0	-21.37711699760957	1.659277491615732	3.206407148933037	0	0	0	4.995143729889036	-15.15834904679545	28.21097742580566	31.67148649236785	34.45944728311362	0	3.619959981358041	9.721739042791825	-13.41190261873115	36.56342503148596	31.64233785278582	38.67080088819521	0	3.619959981358041
61.9302624	-4200.073980989967	-3172.355955962208	-1504.766378896559	0.2341366603171506	0.04326292228651554	-1.326684523481465	-22.57117169827992	-1.591976316804377	-3.241458145969817	5.899560354604904	2.451982624139334	1.987972377786656	0	-24.74788768789517	-3.395140484746916	-11.58000132048591	9.793848132074926	-0.4439473045988533	4.250290820099795	0	-21.37711699760957	1.659277491615732	3.206407148933037	0	0	0	5.005112756393287	-15.15830671094552	28.19961105133029	31.70538859919892	34.47557820845012	0	3.624445537067875	9.730871904827536	-13.41232730449642	36.5475232334852	31.67628545670722	38.68014340621462	0	3.624445537067875
62.0821648	-4188.917633910637	-3163.084695779359	-1494.629707288656	0.2341366603171506	0.04326292228651554	-1.326684523481465	-22.57117169827992	-1.591976316804377	-3.241458145969817	5.899560354604904	2.451982624139334	1.987972377786656	0	-24.74788768789517	-3.395140484746916	-11.58000132048591	9.793848132074926	-0.4439473045988533	4.250290820099795	0	-21.37711699760957	1.659277491615732	3.206407148933037	0	0	0	5.032983317354951	-15.1581882502275	28.16779041993772	31.80027079437216	34.52073700883279	0	3.636980864049528	9.756402778908891	-13.41351562608406	36.50300288464121	31.77129473871267	38.70630315446471	0	3.636980864049528
62.2490199	-4114.922187763801	-3176.49853095074	-1515.578889139765	0.2341366603171506	0.04326292228651554	-1.326684523481465	-22.57117169827992	-1.591976316804377	-3.241458145969817	5.899560354604904	2.451982624139334	1.987972377786656	0	-24.74788768789517	-3.395140484746916	-11.58000132048591	9.793848132074926	-0.4439473045988533	4.250290820099795	0	-21.37711699760957	1.659277491615732	3.206407148933037	0	0	0	5.044818867435233	-15.15813799459734	28.15430853390901	31.84030446851028	34.53976930884185	0	3.642235958273588	9.76724594385346	-13.41401975764261	36.4841500195822	31.81138169713173	38.71733414177073	0	3.642235958273588
